<svg xmlns="http://www.w3.org/2000/svg" xmlns:xlink="http://www.w3.org/1999/xlink" width="46" zoomAndPan="magnify" viewBox="0 0 34.5 32.999998" height="44" preserveAspectRatio="xMidYMid meet" version="1.2"><defs><clipPath id="1675a5f252"><path d="M 0 19 L 33.9375 19 L 33.9375 22.929688 L 0 22.929688 Z M 0 19 "/></clipPath><clipPath id="2cb10d43de"><path d="M 10.277344 8 L 16 8 L 16 17.292969 L 10.277344 17.292969 Z M 10.277344 8 "/></clipPath><clipPath id="768418e0d1"><path d="M 11 6.785156 L 17 6.785156 L 17 17.292969 L 11 17.292969 Z M 11 6.785156 "/></clipPath><clipPath id="894197018f"><path d="M 18 8 L 23.714844 8 L 23.714844 17.292969 L 18 17.292969 Z M 18 8 "/></clipPath><clipPath id="60efa94098"><path d="M 16 6.785156 L 23 6.785156 L 23 17.292969 L 16 17.292969 Z M 16 6.785156 "/></clipPath><clipPath id="a0f2921752"><path d="M 12.539062 12 L 13 12 L 13 13 L 12.539062 13 Z M 12.539062 12 "/></clipPath><clipPath id="d90696f8ab"><path d="M 14 10.6875 L 15 10.6875 L 15 14.382812 L 14 14.382812 Z M 14 10.6875 "/></clipPath><clipPath id="31a685c57a"><path d="M 15 10.6875 L 16 10.6875 L 16 14.382812 L 15 14.382812 Z M 15 10.6875 "/></clipPath><clipPath id="8a294019e6"><path d="M 18 10.6875 L 19 10.6875 L 19 14.382812 L 18 14.382812 Z M 18 10.6875 "/></clipPath><clipPath id="7b956731a7"><path d="M 18 11 L 20 11 L 20 14.382812 L 18 14.382812 Z M 18 11 "/></clipPath><clipPath id="54480e18dc"><path d="M 19 10.6875 L 21 10.6875 L 21 14.382812 L 19 14.382812 Z M 19 10.6875 "/></clipPath><clipPath id="9cdff152a5"><path d="M 20 11 L 21.410156 11 L 21.410156 14 L 20 14 Z M 20 11 "/></clipPath></defs><g id="d62db650dd"><path style=" stroke:none;fill-rule:nonzero;fill:#000000;fill-opacity:1;" d="M 3.070312 4.066406 L 3.070312 20.070312 C 3.070312 20.65625 3.542969 21.125 4.125 21.125 L 30.539062 21.125 C 31.125 21.125 31.59375 20.65625 31.59375 20.070312 L 31.59375 4.066406 C 31.59375 3.484375 31.125 3.011719 30.539062 3.011719 L 4.125 3.011719 C 3.542969 3.011719 3.070312 3.484375 3.070312 4.066406 Z M 5.765625 4.886719 L 28.898438 4.886719 C 29.480469 4.886719 29.953125 5.355469 29.953125 5.941406 L 29.953125 18.199219 C 29.953125 18.78125 29.480469 19.253906 28.898438 19.253906 L 5.765625 19.253906 C 5.179688 19.253906 4.710938 18.78125 4.710938 18.199219 L 4.710938 5.941406 C 4.710938 5.355469 5.183594 4.886719 5.765625 4.886719 Z M 5.765625 4.886719 "/><g clip-rule="nonzero" clip-path="url(#1675a5f252)"><path style=" stroke:none;fill-rule:nonzero;fill:#00c2cb;fill-opacity:1;" d="M 30.5 22.84375 L 3.433594 22.84375 C 1.539062 22.84375 0 21.304688 0 19.40625 L 33.9375 19.40625 C 33.9375 21.304688 32.398438 22.84375 30.5 22.84375 Z M 30.5 22.84375 "/></g><g clip-rule="nonzero" clip-path="url(#2cb10d43de)"><path style=" stroke:none;fill-rule:nonzero;fill:#000000;fill-opacity:1;" d="M 15.957031 17.246094 L 10.300781 17.246094 L 10.300781 8.027344 L 11.015625 8.027344 L 11.015625 16.636719 L 11.519531 16.539062 C 11.84375 16.476562 12.183594 16.445312 12.53125 16.445312 C 13.539062 16.445312 14.667969 16.707031 15.957031 17.246094 Z M 15.957031 17.246094 "/></g><g clip-rule="nonzero" clip-path="url(#768418e0d1)"><path style=" stroke:none;fill-rule:nonzero;fill:#00c2cb;fill-opacity:1;" d="M 16.996094 17.246094 C 15.050781 16.3125 13.171875 15.789062 11.441406 16.125 L 11.441406 6.90625 C 13.347656 6.539062 15.191406 7.03125 16.996094 8.027344 Z M 16.996094 17.246094 "/></g><g clip-rule="nonzero" clip-path="url(#894197018f)"><path style=" stroke:none;fill-rule:nonzero;fill:#000000;fill-opacity:1;" d="M 18.035156 17.246094 L 23.691406 17.246094 L 23.691406 8.027344 L 22.976562 8.027344 L 22.976562 16.636719 L 22.46875 16.539062 C 22.148438 16.476562 21.808594 16.445312 21.460938 16.445312 C 20.453125 16.445312 19.324219 16.707031 18.035156 17.246094 Z M 18.035156 17.246094 "/></g><g clip-rule="nonzero" clip-path="url(#60efa94098)"><path style=" stroke:none;fill-rule:nonzero;fill:#00c2cb;fill-opacity:1;" d="M 16.996094 17.246094 C 18.941406 16.3125 20.820312 15.789062 22.550781 16.125 L 22.550781 6.90625 C 20.644531 6.539062 18.800781 7.03125 16.996094 8.027344 Z M 16.996094 17.246094 "/></g><g clip-rule="nonzero" clip-path="url(#a0f2921752)"><path style=" stroke:none;fill-rule:nonzero;fill:#406c8d;fill-opacity:1;" d="M 12.636719 12.863281 C 12.582031 12.863281 12.539062 12.816406 12.539062 12.761719 L 12.539062 12.308594 C 12.539062 12.253906 12.582031 12.207031 12.636719 12.207031 C 12.691406 12.207031 12.738281 12.253906 12.738281 12.308594 L 12.738281 12.761719 C 12.738281 12.816406 12.691406 12.863281 12.636719 12.863281 Z M 12.636719 12.863281 "/></g><path style=" stroke:none;fill-rule:nonzero;fill:#406c8d;fill-opacity:1;" d="M 13.132812 13.492188 C 13.078125 13.492188 13.03125 13.449219 13.03125 13.390625 L 13.03125 11.675781 C 13.03125 11.621094 13.078125 11.578125 13.132812 11.578125 C 13.1875 11.578125 13.230469 11.621094 13.230469 11.675781 L 13.230469 13.390625 C 13.230469 13.449219 13.1875 13.492188 13.132812 13.492188 Z M 13.132812 13.492188 "/><path style=" stroke:none;fill-rule:nonzero;fill:#406c8d;fill-opacity:1;" d="M 13.625 13.386719 C 13.570312 13.386719 13.527344 13.339844 13.527344 13.285156 L 13.527344 11.785156 C 13.527344 11.730469 13.570312 11.683594 13.625 11.683594 C 13.679688 11.683594 13.726562 11.730469 13.726562 11.785156 L 13.726562 13.285156 C 13.726562 13.339844 13.679688 13.386719 13.625 13.386719 Z M 13.625 13.386719 "/><path style=" stroke:none;fill-rule:nonzero;fill:#406c8d;fill-opacity:1;" d="M 14.121094 13.597656 C 14.066406 13.597656 14.019531 13.550781 14.019531 13.496094 L 14.019531 11.574219 C 14.019531 11.515625 14.066406 11.472656 14.121094 11.472656 C 14.175781 11.472656 14.21875 11.515625 14.21875 11.574219 L 14.21875 13.496094 C 14.21875 13.550781 14.175781 13.597656 14.121094 13.597656 Z M 14.121094 13.597656 "/><g clip-rule="nonzero" clip-path="url(#d90696f8ab)"><path style=" stroke:none;fill-rule:nonzero;fill:#406c8d;fill-opacity:1;" d="M 14.613281 14.382812 C 14.558594 14.382812 14.515625 14.335938 14.515625 14.28125 L 14.515625 10.785156 C 14.515625 10.730469 14.558594 10.6875 14.613281 10.6875 C 14.671875 10.6875 14.714844 10.730469 14.714844 10.785156 L 14.714844 14.28125 C 14.714844 14.335938 14.671875 14.382812 14.613281 14.382812 Z M 14.613281 14.382812 "/></g><g clip-rule="nonzero" clip-path="url(#31a685c57a)"><path style=" stroke:none;fill-rule:nonzero;fill:#406c8d;fill-opacity:1;" d="M 15.109375 14.082031 C 15.054688 14.082031 15.007812 14.039062 15.007812 13.980469 L 15.007812 11.085938 C 15.007812 11.03125 15.054688 10.988281 15.109375 10.988281 C 15.164062 10.988281 15.210938 11.03125 15.210938 11.085938 L 15.210938 13.980469 C 15.210938 14.039062 15.164062 14.082031 15.109375 14.082031 Z M 15.109375 14.082031 "/></g><path style=" stroke:none;fill-rule:nonzero;fill:#406c8d;fill-opacity:1;" d="M 15.605469 13.949219 C 15.546875 13.949219 15.503906 13.902344 15.503906 13.847656 L 15.503906 11.222656 C 15.503906 11.164062 15.546875 11.121094 15.605469 11.121094 C 15.660156 11.121094 15.703125 11.164062 15.703125 11.222656 L 15.703125 13.847656 C 15.703125 13.902344 15.660156 13.949219 15.605469 13.949219 Z M 15.605469 13.949219 "/><path style=" stroke:none;fill-rule:nonzero;fill:#406c8d;fill-opacity:1;" d="M 16.097656 13.496094 C 16.042969 13.496094 16 13.453125 16 13.398438 L 16 11.671875 C 16 11.617188 16.042969 11.570312 16.097656 11.570312 C 16.152344 11.570312 16.199219 11.617188 16.199219 11.671875 L 16.199219 13.398438 C 16.199219 13.453125 16.152344 13.496094 16.097656 13.496094 Z M 16.097656 13.496094 "/><path style=" stroke:none;fill-rule:nonzero;fill:#406c8d;fill-opacity:1;" d="M 16.59375 13.113281 C 16.539062 13.113281 16.492188 13.066406 16.492188 13.011719 L 16.492188 12.058594 C 16.492188 12.003906 16.539062 11.957031 16.59375 11.957031 C 16.648438 11.957031 16.691406 12.003906 16.691406 12.058594 L 16.691406 13.011719 C 16.691406 13.066406 16.648438 13.113281 16.59375 13.113281 Z M 16.59375 13.113281 "/><path style=" stroke:none;fill-rule:nonzero;fill:#406c8d;fill-opacity:1;" d="M 17.085938 12.933594 C 17.03125 12.933594 16.988281 12.886719 16.988281 12.832031 L 16.988281 12.238281 C 16.988281 12.183594 17.03125 12.136719 17.085938 12.136719 C 17.144531 12.136719 17.1875 12.183594 17.1875 12.238281 L 17.1875 12.832031 C 17.1875 12.886719 17.144531 12.933594 17.085938 12.933594 Z M 17.085938 12.933594 "/><path style=" stroke:none;fill-rule:nonzero;fill:#406c8d;fill-opacity:1;" d="M 17.582031 12.933594 C 17.527344 12.933594 17.480469 12.886719 17.480469 12.832031 L 17.480469 12.238281 C 17.480469 12.183594 17.527344 12.136719 17.582031 12.136719 C 17.636719 12.136719 17.683594 12.183594 17.683594 12.238281 L 17.683594 12.832031 C 17.683594 12.886719 17.636719 12.933594 17.582031 12.933594 Z M 17.582031 12.933594 "/><path style=" stroke:none;fill-rule:nonzero;fill:#406c8d;fill-opacity:1;" d="M 18.078125 13.882812 C 18.019531 13.882812 17.976562 13.839844 17.976562 13.785156 L 17.976562 11.285156 C 17.976562 11.230469 18.019531 11.183594 18.078125 11.183594 C 18.132812 11.183594 18.175781 11.230469 18.175781 11.285156 L 18.175781 13.785156 C 18.175781 13.839844 18.132812 13.882812 18.078125 13.882812 Z M 18.078125 13.882812 "/><g clip-rule="nonzero" clip-path="url(#8a294019e6)"><path style=" stroke:none;fill-rule:nonzero;fill:#406c8d;fill-opacity:1;" d="M 18.570312 14.21875 C 18.515625 14.21875 18.46875 14.175781 18.46875 14.117188 L 18.46875 10.949219 C 18.46875 10.894531 18.515625 10.851562 18.570312 10.851562 C 18.625 10.851562 18.671875 10.894531 18.671875 10.949219 L 18.671875 14.117188 C 18.671875 14.175781 18.625 14.21875 18.570312 14.21875 Z M 18.570312 14.21875 "/></g><g clip-rule="nonzero" clip-path="url(#7b956731a7)"><path style=" stroke:none;fill-rule:nonzero;fill:#406c8d;fill-opacity:1;" d="M 19.066406 14.015625 C 19.011719 14.015625 18.964844 13.972656 18.964844 13.917969 L 18.964844 11.152344 C 18.964844 11.097656 19.011719 11.054688 19.066406 11.054688 C 19.121094 11.054688 19.164062 11.097656 19.164062 11.152344 L 19.164062 13.917969 C 19.164062 13.972656 19.121094 14.015625 19.066406 14.015625 Z M 19.066406 14.015625 "/></g><path style=" stroke:none;fill-rule:nonzero;fill:#406c8d;fill-opacity:1;" d="M 19.558594 13.714844 C 19.503906 13.714844 19.460938 13.667969 19.460938 13.613281 L 19.460938 11.453125 C 19.460938 11.398438 19.503906 11.355469 19.558594 11.355469 C 19.613281 11.355469 19.660156 11.398438 19.660156 11.453125 L 19.660156 13.613281 C 19.660156 13.667969 19.613281 13.714844 19.558594 13.714844 Z M 19.558594 13.714844 "/><g clip-rule="nonzero" clip-path="url(#54480e18dc)"><path style=" stroke:none;fill-rule:nonzero;fill:#406c8d;fill-opacity:1;" d="M 20.054688 14.3125 C 20 14.3125 19.953125 14.265625 19.953125 14.210938 L 19.953125 10.859375 C 19.953125 10.804688 20 10.757812 20.054688 10.757812 C 20.109375 10.757812 20.152344 10.804688 20.152344 10.859375 L 20.152344 14.210938 C 20.152344 14.265625 20.109375 14.3125 20.054688 14.3125 Z M 20.054688 14.3125 "/></g><path style=" stroke:none;fill-rule:nonzero;fill:#406c8d;fill-opacity:1;" d="M 20.546875 13.421875 C 20.492188 13.421875 20.449219 13.375 20.449219 13.320312 L 20.449219 11.75 C 20.449219 11.695312 20.492188 11.648438 20.546875 11.648438 C 20.605469 11.648438 20.648438 11.695312 20.648438 11.75 L 20.648438 13.320312 C 20.648438 13.375 20.605469 13.421875 20.546875 13.421875 Z M 20.546875 13.421875 "/><g clip-rule="nonzero" clip-path="url(#9cdff152a5)"><path style=" stroke:none;fill-rule:nonzero;fill:#406c8d;fill-opacity:1;" d="M 21.042969 13.089844 C 20.988281 13.089844 20.941406 13.046875 20.941406 12.992188 L 20.941406 12.078125 C 20.941406 12.023438 20.988281 11.976562 21.042969 11.976562 C 21.097656 11.976562 21.144531 12.023438 21.144531 12.078125 L 21.144531 12.992188 C 21.144531 13.046875 21.097656 13.089844 21.042969 13.089844 Z M 21.042969 13.089844 "/></g><g style="fill:#000000;fill-opacity:1;"><g transform="translate(2.636508, 29.368291)"><path style="stroke:none" d="M 1.671875 0 L 0.125 -4.703125 L 1.234375 -4.703125 L 2.34375 -0.875 L 2.4375 -0.875 L 3.546875 -4.703125 L 4.65625 -4.703125 L 3.09375 0 Z M 1.671875 0 "/></g></g><g style="fill:#000000;fill-opacity:1;"><g transform="translate(7.404006, 29.368291)"><path style="stroke:none" d="M 2.1875 0.09375 C 1.882812 0.09375 1.613281 0.0507812 1.375 -0.03125 C 1.132812 -0.113281 0.929688 -0.234375 0.765625 -0.390625 C 0.597656 -0.554688 0.46875 -0.757812 0.375 -1 C 0.289062 -1.238281 0.25 -1.503906 0.25 -1.796875 C 0.25 -2.097656 0.289062 -2.375 0.375 -2.625 C 0.457031 -2.875 0.578125 -3.085938 0.734375 -3.265625 C 0.898438 -3.453125 1.097656 -3.59375 1.328125 -3.6875 C 1.566406 -3.789062 1.832031 -3.84375 2.125 -3.84375 C 2.414062 -3.84375 2.671875 -3.796875 2.890625 -3.703125 C 3.109375 -3.609375 3.289062 -3.46875 3.4375 -3.28125 C 3.582031 -3.09375 3.691406 -2.863281 3.765625 -2.59375 C 3.835938 -2.332031 3.859375 -2.03125 3.828125 -1.6875 L 0.921875 -1.65625 L 0.921875 -2.21875 L 3.234375 -2.25 L 2.890625 -1.953125 C 2.921875 -2.203125 2.90625 -2.40625 2.84375 -2.5625 C 2.78125 -2.726562 2.679688 -2.847656 2.546875 -2.921875 C 2.421875 -3.003906 2.28125 -3.046875 2.125 -3.046875 C 1.945312 -3.046875 1.789062 -2.992188 1.65625 -2.890625 C 1.519531 -2.796875 1.414062 -2.65625 1.34375 -2.46875 C 1.269531 -2.289062 1.234375 -2.078125 1.234375 -1.828125 C 1.234375 -1.421875 1.320312 -1.125 1.5 -0.9375 C 1.675781 -0.75 1.90625 -0.65625 2.1875 -0.65625 C 2.320312 -0.65625 2.4375 -0.671875 2.53125 -0.703125 C 2.625 -0.742188 2.695312 -0.789062 2.75 -0.84375 C 2.8125 -0.90625 2.859375 -0.96875 2.890625 -1.03125 C 2.929688 -1.101562 2.960938 -1.179688 2.984375 -1.265625 L 3.875 -1.078125 C 3.84375 -0.898438 3.785156 -0.738281 3.703125 -0.59375 C 3.617188 -0.457031 3.507812 -0.335938 3.375 -0.234375 C 3.238281 -0.128906 3.070312 -0.0507812 2.875 0 C 2.6875 0.0625 2.457031 0.09375 2.1875 0.09375 Z M 2.1875 0.09375 "/></g></g><g style="fill:#000000;fill-opacity:1;"><g transform="translate(11.515883, 29.368291)"><path style="stroke:none" d="M 0.453125 0 L 0.453125 -3.734375 L 1.3125 -3.734375 L 1.296875 -2.4375 L 1.4375 -2.4375 C 1.476562 -2.757812 1.539062 -3.023438 1.625 -3.234375 C 1.71875 -3.441406 1.847656 -3.59375 2.015625 -3.6875 C 2.179688 -3.78125 2.382812 -3.828125 2.625 -3.828125 C 2.664062 -3.828125 2.710938 -3.820312 2.765625 -3.8125 C 2.816406 -3.8125 2.878906 -3.804688 2.953125 -3.796875 L 2.921875 -2.703125 C 2.835938 -2.734375 2.753906 -2.753906 2.671875 -2.765625 C 2.585938 -2.785156 2.507812 -2.796875 2.4375 -2.796875 C 2.257812 -2.796875 2.101562 -2.75 1.96875 -2.65625 C 1.832031 -2.570312 1.722656 -2.445312 1.640625 -2.28125 C 1.566406 -2.125 1.515625 -1.929688 1.484375 -1.703125 L 1.484375 0 Z M 0.453125 0 "/></g></g><g style="fill:#000000;fill-opacity:1;"><g transform="translate(14.580193, 29.368291)"><path style="stroke:none" d="M 2.703125 0.09375 C 2.472656 0.09375 2.269531 0.0507812 2.09375 -0.03125 C 1.914062 -0.125 1.769531 -0.257812 1.65625 -0.4375 C 1.550781 -0.625 1.476562 -0.84375 1.4375 -1.09375 L 1.3125 -1.09375 L 1.3125 0 L 0.453125 0 L 0.453125 -5.078125 L 1.484375 -5.078125 L 1.484375 -3.875 C 1.484375 -3.757812 1.472656 -3.632812 1.453125 -3.5 C 1.441406 -3.375 1.421875 -3.238281 1.390625 -3.09375 C 1.367188 -2.945312 1.34375 -2.800781 1.3125 -2.65625 L 1.46875 -2.65625 C 1.53125 -2.894531 1.613281 -3.101562 1.71875 -3.28125 C 1.820312 -3.457031 1.957031 -3.59375 2.125 -3.6875 C 2.289062 -3.78125 2.488281 -3.828125 2.71875 -3.828125 C 3.03125 -3.828125 3.300781 -3.742188 3.53125 -3.578125 C 3.757812 -3.421875 3.929688 -3.195312 4.046875 -2.90625 C 4.171875 -2.613281 4.234375 -2.265625 4.234375 -1.859375 C 4.234375 -1.453125 4.171875 -1.101562 4.046875 -0.8125 C 3.929688 -0.519531 3.757812 -0.296875 3.53125 -0.140625 C 3.300781 0.015625 3.023438 0.09375 2.703125 0.09375 Z M 2.34375 -0.734375 C 2.507812 -0.734375 2.65625 -0.78125 2.78125 -0.875 C 2.90625 -0.96875 3 -1.097656 3.0625 -1.265625 C 3.132812 -1.441406 3.171875 -1.640625 3.171875 -1.859375 C 3.171875 -2.085938 3.140625 -2.285156 3.078125 -2.453125 C 3.015625 -2.628906 2.921875 -2.765625 2.796875 -2.859375 C 2.679688 -2.953125 2.539062 -3 2.375 -3 C 2.257812 -3 2.15625 -2.976562 2.0625 -2.9375 C 1.96875 -2.894531 1.882812 -2.835938 1.8125 -2.765625 C 1.738281 -2.691406 1.675781 -2.609375 1.625 -2.515625 C 1.570312 -2.421875 1.535156 -2.320312 1.515625 -2.21875 C 1.492188 -2.125 1.484375 -2.03125 1.484375 -1.9375 L 1.484375 -1.796875 C 1.484375 -1.679688 1.5 -1.5625 1.53125 -1.4375 C 1.5625 -1.3125 1.613281 -1.195312 1.6875 -1.09375 C 1.757812 -0.988281 1.847656 -0.898438 1.953125 -0.828125 C 2.066406 -0.765625 2.195312 -0.734375 2.34375 -0.734375 Z M 2.34375 -0.734375 "/></g></g><g style="fill:#000000;fill-opacity:1;"><g transform="translate(19.08402, 29.368291)"><path style="stroke:none" d="M 2.1875 0.09375 C 1.882812 0.09375 1.613281 0.0507812 1.375 -0.03125 C 1.132812 -0.113281 0.929688 -0.234375 0.765625 -0.390625 C 0.597656 -0.554688 0.46875 -0.757812 0.375 -1 C 0.289062 -1.238281 0.25 -1.503906 0.25 -1.796875 C 0.25 -2.097656 0.289062 -2.375 0.375 -2.625 C 0.457031 -2.875 0.578125 -3.085938 0.734375 -3.265625 C 0.898438 -3.453125 1.097656 -3.59375 1.328125 -3.6875 C 1.566406 -3.789062 1.832031 -3.84375 2.125 -3.84375 C 2.414062 -3.84375 2.671875 -3.796875 2.890625 -3.703125 C 3.109375 -3.609375 3.289062 -3.46875 3.4375 -3.28125 C 3.582031 -3.09375 3.691406 -2.863281 3.765625 -2.59375 C 3.835938 -2.332031 3.859375 -2.03125 3.828125 -1.6875 L 0.921875 -1.65625 L 0.921875 -2.21875 L 3.234375 -2.25 L 2.890625 -1.953125 C 2.921875 -2.203125 2.90625 -2.40625 2.84375 -2.5625 C 2.78125 -2.726562 2.679688 -2.847656 2.546875 -2.921875 C 2.421875 -3.003906 2.28125 -3.046875 2.125 -3.046875 C 1.945312 -3.046875 1.789062 -2.992188 1.65625 -2.890625 C 1.519531 -2.796875 1.414062 -2.65625 1.34375 -2.46875 C 1.269531 -2.289062 1.234375 -2.078125 1.234375 -1.828125 C 1.234375 -1.421875 1.320312 -1.125 1.5 -0.9375 C 1.675781 -0.75 1.90625 -0.65625 2.1875 -0.65625 C 2.320312 -0.65625 2.4375 -0.671875 2.53125 -0.703125 C 2.625 -0.742188 2.695312 -0.789062 2.75 -0.84375 C 2.8125 -0.90625 2.859375 -0.96875 2.890625 -1.03125 C 2.929688 -1.101562 2.960938 -1.179688 2.984375 -1.265625 L 3.875 -1.078125 C 3.84375 -0.898438 3.785156 -0.738281 3.703125 -0.59375 C 3.617188 -0.457031 3.507812 -0.335938 3.375 -0.234375 C 3.238281 -0.128906 3.070312 -0.0507812 2.875 0 C 2.6875 0.0625 2.457031 0.09375 2.1875 0.09375 Z M 2.1875 0.09375 "/></g></g><g style="fill:#000000;fill-opacity:1;"><g transform="translate(23.195897, 29.368291)"><path style="stroke:none" d="M 0.09375 0 L 1.328125 -1.875 L 0.09375 -3.734375 L 1.28125 -3.734375 L 1.953125 -2.34375 L 2.078125 -2.34375 L 2.75 -3.734375 L 3.921875 -3.734375 L 2.6875 -1.875 L 3.9375 0 L 2.765625 0 L 2.078125 -1.40625 L 1.953125 -1.40625 L 1.28125 0 Z M 0.09375 0 "/></g></g><g style="fill:#000000;fill-opacity:1;"><g transform="translate(27.229387, 29.368291)"><path style="stroke:none" d="M 1.34375 0.09375 C 1.132812 0.09375 0.945312 0.0546875 0.78125 -0.015625 C 0.625 -0.0976562 0.5 -0.21875 0.40625 -0.375 C 0.3125 -0.53125 0.265625 -0.71875 0.265625 -0.9375 C 0.265625 -1.195312 0.320312 -1.398438 0.4375 -1.546875 C 0.550781 -1.703125 0.695312 -1.820312 0.875 -1.90625 C 1.0625 -1.988281 1.257812 -2.046875 1.46875 -2.078125 C 1.675781 -2.117188 1.863281 -2.148438 2.03125 -2.171875 C 2.195312 -2.191406 2.328125 -2.210938 2.421875 -2.234375 C 2.523438 -2.265625 2.597656 -2.304688 2.640625 -2.359375 C 2.691406 -2.410156 2.71875 -2.476562 2.71875 -2.5625 C 2.71875 -2.65625 2.695312 -2.738281 2.65625 -2.8125 C 2.613281 -2.882812 2.546875 -2.941406 2.453125 -2.984375 C 2.367188 -3.035156 2.257812 -3.0625 2.125 -3.0625 C 1.988281 -3.0625 1.859375 -3.035156 1.734375 -2.984375 C 1.617188 -2.941406 1.519531 -2.867188 1.4375 -2.765625 C 1.351562 -2.671875 1.300781 -2.550781 1.28125 -2.40625 L 0.359375 -2.65625 C 0.410156 -2.863281 0.488281 -3.039062 0.59375 -3.1875 C 0.707031 -3.332031 0.835938 -3.453125 0.984375 -3.546875 C 1.140625 -3.648438 1.3125 -3.722656 1.5 -3.765625 C 1.6875 -3.816406 1.894531 -3.84375 2.125 -3.84375 C 2.414062 -3.84375 2.660156 -3.804688 2.859375 -3.734375 C 3.066406 -3.660156 3.234375 -3.550781 3.359375 -3.40625 C 3.484375 -3.257812 3.570312 -3.082031 3.625 -2.875 C 3.6875 -2.675781 3.71875 -2.441406 3.71875 -2.171875 L 3.71875 -1.53125 C 3.71875 -1.375 3.71875 -1.207031 3.71875 -1.03125 C 3.726562 -0.851562 3.738281 -0.675781 3.75 -0.5 C 3.769531 -0.332031 3.785156 -0.164062 3.796875 0 L 2.890625 0 C 2.878906 -0.125 2.863281 -0.265625 2.84375 -0.421875 C 2.832031 -0.578125 2.820312 -0.734375 2.8125 -0.890625 L 2.6875 -0.890625 C 2.625 -0.710938 2.53125 -0.546875 2.40625 -0.390625 C 2.28125 -0.234375 2.128906 -0.113281 1.953125 -0.03125 C 1.773438 0.0507812 1.570312 0.09375 1.34375 0.09375 Z M 1.78125 -0.640625 C 1.863281 -0.640625 1.953125 -0.65625 2.046875 -0.6875 C 2.140625 -0.71875 2.226562 -0.765625 2.3125 -0.828125 C 2.40625 -0.890625 2.488281 -0.96875 2.5625 -1.0625 C 2.632812 -1.164062 2.691406 -1.273438 2.734375 -1.390625 L 2.71875 -1.953125 L 2.890625 -1.921875 C 2.804688 -1.859375 2.707031 -1.804688 2.59375 -1.765625 C 2.476562 -1.734375 2.359375 -1.707031 2.234375 -1.6875 C 2.117188 -1.675781 2 -1.65625 1.875 -1.625 C 1.757812 -1.601562 1.65625 -1.570312 1.5625 -1.53125 C 1.46875 -1.5 1.390625 -1.445312 1.328125 -1.375 C 1.273438 -1.3125 1.25 -1.222656 1.25 -1.109375 C 1.25 -0.960938 1.296875 -0.847656 1.390625 -0.765625 C 1.492188 -0.679688 1.625 -0.640625 1.78125 -0.640625 Z M 1.78125 -0.640625 "/></g></g></g></svg>